<mxfile host="app.diagrams.net" modified="2023-11-10T11:17:09.314Z" agent="Mozilla/5.0 (Windows NT 10.0; Win64; x64) AppleWebKit/537.36 (KHTML, like Gecko) Chrome/119.0.0.0 Safari/537.36" etag="IhVedBVCW9MXXSgJPsum" version="22.1.0" type="github">
  <diagram id="prtHgNgQTEPvFCAcTncT" name="Page-1">
    <mxGraphModel dx="875" dy="472" grid="1" gridSize="10" guides="1" tooltips="1" connect="1" arrows="1" fold="1" page="1" pageScale="1" pageWidth="827" pageHeight="1169" math="0" shadow="0">
      <root>
        <mxCell id="0" />
        <mxCell id="1" parent="0" />
        <mxCell id="Ai7r62r_QdcolZVDtJvy-2" value="Работа с ветками" style="swimlane;childLayout=stackLayout;resizeParent=1;resizeParentMax=0;horizontal=1;startSize=20;horizontalStack=0;html=1;" parent="1" vertex="1">
          <mxGeometry x="200" y="40" width="440" height="360" as="geometry" />
        </mxCell>
        <mxCell id="Ai7r62r_QdcolZVDtJvy-3" value="Сибериан" style="swimlane;startSize=20;horizontal=0;html=1;" parent="Ai7r62r_QdcolZVDtJvy-2" vertex="1">
          <mxGeometry y="20" width="440" height="110" as="geometry" />
        </mxCell>
        <mxCell id="Ai7r62r_QdcolZVDtJvy-14" style="edgeStyle=orthogonalEdgeStyle;rounded=0;orthogonalLoop=1;jettySize=auto;html=1;" parent="Ai7r62r_QdcolZVDtJvy-3" source="Ai7r62r_QdcolZVDtJvy-7" target="Ai7r62r_QdcolZVDtJvy-13" edge="1">
          <mxGeometry relative="1" as="geometry" />
        </mxCell>
        <mxCell id="Ai7r62r_QdcolZVDtJvy-7" value="siberian:feature/101" style="whiteSpace=wrap;html=1;" parent="Ai7r62r_QdcolZVDtJvy-3" vertex="1">
          <mxGeometry x="40" y="20" width="120" height="30" as="geometry" />
        </mxCell>
        <mxCell id="Ai7r62r_QdcolZVDtJvy-15" style="edgeStyle=orthogonalEdgeStyle;rounded=0;orthogonalLoop=1;jettySize=auto;html=1;" parent="Ai7r62r_QdcolZVDtJvy-3" source="Ai7r62r_QdcolZVDtJvy-8" target="Ai7r62r_QdcolZVDtJvy-13" edge="1">
          <mxGeometry relative="1" as="geometry" />
        </mxCell>
        <mxCell id="Ai7r62r_QdcolZVDtJvy-8" value="siberian:bug/102" style="whiteSpace=wrap;html=1;" parent="Ai7r62r_QdcolZVDtJvy-3" vertex="1">
          <mxGeometry x="40" y="60" width="120" height="30" as="geometry" />
        </mxCell>
        <mxCell id="Ai7r62r_QdcolZVDtJvy-13" value="siberian:develop" style="whiteSpace=wrap;html=1;" parent="Ai7r62r_QdcolZVDtJvy-3" vertex="1">
          <mxGeometry x="200" y="40" width="100" height="30" as="geometry" />
        </mxCell>
        <mxCell id="Ai7r62r_QdcolZVDtJvy-4" value="VPluse" style="swimlane;startSize=20;horizontal=0;html=1;" parent="Ai7r62r_QdcolZVDtJvy-2" vertex="1">
          <mxGeometry y="130" width="440" height="120" as="geometry" />
        </mxCell>
        <mxCell id="Ai7r62r_QdcolZVDtJvy-6" value="develop" style="whiteSpace=wrap;html=1;" parent="Ai7r62r_QdcolZVDtJvy-4" vertex="1">
          <mxGeometry x="330" y="45" width="90" height="30" as="geometry" />
        </mxCell>
        <mxCell id="Ai7r62r_QdcolZVDtJvy-26" style="edgeStyle=orthogonalEdgeStyle;rounded=0;orthogonalLoop=1;jettySize=auto;html=1;" parent="Ai7r62r_QdcolZVDtJvy-4" source="Ai7r62r_QdcolZVDtJvy-23" target="Ai7r62r_QdcolZVDtJvy-6" edge="1">
          <mxGeometry relative="1" as="geometry" />
        </mxCell>
        <mxCell id="Ai7r62r_QdcolZVDtJvy-23" value="Согласование&lt;br&gt;слияния" style="shape=delay;whiteSpace=wrap;html=1;" parent="Ai7r62r_QdcolZVDtJvy-4" vertex="1">
          <mxGeometry x="200" y="40" width="100" height="40" as="geometry" />
        </mxCell>
        <mxCell id="Ai7r62r_QdcolZVDtJvy-5" value="Guscom" style="swimlane;startSize=20;horizontal=0;html=1;" parent="Ai7r62r_QdcolZVDtJvy-2" vertex="1">
          <mxGeometry y="250" width="440" height="110" as="geometry" />
        </mxCell>
        <mxCell id="Ai7r62r_QdcolZVDtJvy-20" style="edgeStyle=orthogonalEdgeStyle;rounded=0;orthogonalLoop=1;jettySize=auto;html=1;" parent="Ai7r62r_QdcolZVDtJvy-5" source="Ai7r62r_QdcolZVDtJvy-16" target="Ai7r62r_QdcolZVDtJvy-18" edge="1">
          <mxGeometry relative="1" as="geometry" />
        </mxCell>
        <mxCell id="Ai7r62r_QdcolZVDtJvy-16" value="guscom:bug/104" style="whiteSpace=wrap;html=1;" parent="Ai7r62r_QdcolZVDtJvy-5" vertex="1">
          <mxGeometry x="40" y="60" width="120" height="30" as="geometry" />
        </mxCell>
        <mxCell id="Ai7r62r_QdcolZVDtJvy-19" style="edgeStyle=orthogonalEdgeStyle;rounded=0;orthogonalLoop=1;jettySize=auto;html=1;" parent="Ai7r62r_QdcolZVDtJvy-5" source="Ai7r62r_QdcolZVDtJvy-17" target="Ai7r62r_QdcolZVDtJvy-18" edge="1">
          <mxGeometry relative="1" as="geometry" />
        </mxCell>
        <mxCell id="Ai7r62r_QdcolZVDtJvy-17" value="guscom:feature/103" style="whiteSpace=wrap;html=1;" parent="Ai7r62r_QdcolZVDtJvy-5" vertex="1">
          <mxGeometry x="40" y="20" width="120" height="30" as="geometry" />
        </mxCell>
        <mxCell id="Ai7r62r_QdcolZVDtJvy-18" value="guscom:develop" style="whiteSpace=wrap;html=1;" parent="Ai7r62r_QdcolZVDtJvy-5" vertex="1">
          <mxGeometry x="200" y="40" width="100" height="30" as="geometry" />
        </mxCell>
        <mxCell id="Ai7r62r_QdcolZVDtJvy-24" style="edgeStyle=orthogonalEdgeStyle;rounded=0;orthogonalLoop=1;jettySize=auto;html=1;dashed=1;" parent="Ai7r62r_QdcolZVDtJvy-2" source="Ai7r62r_QdcolZVDtJvy-13" target="Ai7r62r_QdcolZVDtJvy-23" edge="1">
          <mxGeometry relative="1" as="geometry" />
        </mxCell>
        <mxCell id="Ai7r62r_QdcolZVDtJvy-25" style="edgeStyle=orthogonalEdgeStyle;rounded=0;orthogonalLoop=1;jettySize=auto;html=1;dashed=1;" parent="Ai7r62r_QdcolZVDtJvy-2" source="Ai7r62r_QdcolZVDtJvy-18" target="Ai7r62r_QdcolZVDtJvy-23" edge="1">
          <mxGeometry relative="1" as="geometry" />
        </mxCell>
      </root>
    </mxGraphModel>
  </diagram>
</mxfile>
